<?xml version="1.0" encoding="utf-8"?>
<!-- Generator: Adobe Illustrator 17.1.0, SVG Export Plug-In . SVG Version: 6.00 Build 0)  -->
<!DOCTYPE svg PUBLIC "-//W3C//DTD SVG 1.1//EN" "http://www.w3.org/Graphics/SVG/1.1/DTD/svg11.dtd">
<svg version="1.1" id="Layer_1" xmlns="http://www.w3.org/2000/svg" xmlns:xlink="http://www.w3.org/1999/xlink" x="0px" y="0px"
	 viewBox="0 0 330.033 331" enable-background="new 0 0 330.033 331" xml:space="preserve">
<path fill="#112140" d="M166.081,97.662c0,0-43.922-17.575-89.7,0L77,257.483c0,0,40.21-17.026,89.7,0L166.081,97.662z"/>
<path fill="#224280" d="M166.749,97.662c0,0,43.922-17.575,89.7,0l-0.619,159.821c0,0-40.21-17.026-89.7,0L166.749,97.662z"/>
<path fill="#699DFF" d="M166.419,238.817l0.762-142.026c0,0,29.773-10.539,65.773-5.637v142.348
	C215.953,231.279,192.64,230.801,166.419,238.817z"/>
<path fill="#4485FF" d="M167.192,239.091l1.401-141.56c0,0-32.641-11.279-68.641-6.377v142.348
	C116.953,231.279,140.971,231.074,167.192,239.091z"/>
<path fill="#FF9311" d="M113.524,114.777c0,0,18.429-5.814,37.429,3.275V150c0,0-20.569-8.42-37.145-2.538L113.524,114.777z"/>
</svg>
