<?xml version="1.0" encoding="utf-8"?>
<!-- Generator: Adobe Illustrator 17.1.0, SVG Export Plug-In . SVG Version: 6.00 Build 0)  -->
<!DOCTYPE svg PUBLIC "-//W3C//DTD SVG 1.1//EN" "http://www.w3.org/Graphics/SVG/1.1/DTD/svg11.dtd">
<svg version="1.1" id="Layer_1" xmlns="http://www.w3.org/2000/svg" xmlns:xlink="http://www.w3.org/1999/xlink" x="0px" y="0px"
	 viewBox="0 0 330.033 331" enable-background="new 0 0 330.033 331" xml:space="preserve">
<path fill="#699DFF" d="M256,148.461V82l-25,15v56.575C240.554,152.02,248.892,150.26,256,148.461z"/>
<path fill="#4485FF" d="M231,153.575V97l-64-15v76.961C192.289,158.529,213.653,156.398,231,153.575z"/>
<path fill="#699DFF" d="M167,158.961V82L75,96v82.582c18.378-8.893,48.309-19.026,90-19.582
	C165.676,158.991,166.329,158.972,167,158.961z"/>
<path fill="#224280" d="M231,254l25-15v-90.539c-7.108,1.799-15.446,3.56-25,5.114V254z"/>
<path fill="#112140" d="M167,158.961V239l64,15V153.575C213.653,156.398,192.289,158.529,167,158.961z"/>
<path fill="#224280" d="M167,239v-80.039c-0.671,0.011-1.324,0.03-2,0.039c-41.691,0.556-71.622,10.689-90,19.582V253L167,239z"/>
</svg>
