<?xml version="1.0" encoding="utf-8"?>
<!-- Generator: Adobe Illustrator 17.1.0, SVG Export Plug-In . SVG Version: 6.00 Build 0)  -->
<!DOCTYPE svg PUBLIC "-//W3C//DTD SVG 1.1//EN" "http://www.w3.org/Graphics/SVG/1.1/DTD/svg11.dtd">
<svg version="1.1" id="Layer_1" xmlns="http://www.w3.org/2000/svg" xmlns:xlink="http://www.w3.org/1999/xlink" x="0px" y="0px"
	 viewBox="0 0 330.033 331" enable-background="new 0 0 330.033 331" xml:space="preserve">
<path fill="#FF9311" d="M178.314,154.135c0,0,1.17-46.38-33.465-46.662c-34.636-0.283-24.572-1.132-24.572-1.132l1.404,22.058
	c0,0,31.755-3.494,31.322,24.271"/>
<rect x="151.033" y="186" fill="#224280" width="29" height="79"/>
<rect x="153.033" y="147" fill="#FF9311" width="26" height="31"/>
<path fill="#224280" d="M151.107,188.688c0,0-1.938-38.66,36.093-48.688c16.259-4.287,26.833-4,26.833-4v26.334
	c0,0-34.844-2.504-34.353,24.908"/>
<polygon fill="#FF9311" points="121.696,150.705 122.108,86.431 73.49,119.393 "/>
<polygon fill="#224280" points="207.033,117.666 207.033,180.334 254.775,147.783 "/>
</svg>
